<?xml version="1.0" encoding="UTF-8"?>
<svg version="1.1" xmlns="http://www.w3.org/2000/svg" width="74" height="74">
<path d="M0 0 C24.42 0 48.84 0 74 0 C74 24.42 74 48.84 74 74 C49.58 74 25.16 74 0 74 C0 49.58 0 25.16 0 0 Z " fill="#165EFC" transform="translate(0,0)"/>
<path d="M0 0 C3.58875 -0.0928125 3.58875 -0.0928125 7.25 -0.1875 C8.37003418 -0.22846802 8.37003418 -0.22846802 9.51269531 -0.27026367 C12.58355617 -0.30867008 14.72495583 -0.14517435 17.45703125 1.296875 C19 3 19 3 19.4375 6.4375 C18.99490804 10.04146306 18.46704919 11.43015709 16 14 C16.474375 14.53625 16.94875 15.0725 17.4375 15.625 C19.28186076 18.42842836 19.62456847 20.69620258 20 24 C17.36 24 14.72 24 12 24 C11.01 21.03 10.02 18.06 9 15 C8.34 15 7.68 15 7 15 C7 17.97 7 20.94 7 24 C4.69 24 2.38 24 0 24 C0 16.08 0 8.16 0 0 Z " fill="#FBFBFE" transform="translate(17,27)"/>
<path d="M0 0 C6.93 0 13.86 0 21 0 C21 1.98 21 3.96 21 6 C18.69 6 16.38 6 14 6 C14 11.94 14 17.88 14 24 C11.36 24 8.72 24 6 24 C6 18.06 6 12.12 6 6 C4.02 6 2.04 6 0 6 C0 4.02 0 2.04 0 0 Z " fill="#F5F9FE" transform="translate(38,27)"/>
<path d="M0 0 C5.94 0 11.88 0 18 0 C18 5.61 18 11.22 18 17 C16.71128335 15.06692503 15.45797557 13.1095313 14.25 11.125 C10.38673867 5.75935926 6.41340829 2.67970217 0 1 C0 0.67 0 0.34 0 0 Z " fill="#F6F9FE" transform="translate(56,0)"/>
<path d="M0 0 C0.33 0 0.66 0 1 0 C1 5.61 1 11.22 1 17 C-3.95 17 -8.9 17 -14 17 C-13.01 16.34 -12.02 15.68 -11 15 C-5.10412051 10.60186409 -2.00252328 7.13398917 0 0 Z " fill="#E4EEFE" transform="translate(73,57)"/>
<path d="M0 0 C5.28 0 10.56 0 16 0 C14.06692503 1.28871665 12.1095313 2.54202443 10.125 3.75 C6.66421851 6.24176267 4.61547013 8.65801039 2 12 C1.34 12.66 0.68 13.32 0 14 C0 9.38 0 4.76 0 0 Z " fill="#F7FAFE" transform="translate(0,0)"/>
<path d="M0 0 C0.99 1.485 0.99 1.485 2 3 C3.10500196 4.34995313 4.23188065 5.68216809 5.375 7 C6.25285156 8.0209375 6.25285156 8.0209375 7.1484375 9.0625 C9.21841492 11.3344692 9.21841492 11.3344692 13 14 C8.71 14 4.42 14 0 14 C0 9.38 0 4.76 0 0 Z " fill="#E5EFFE" transform="translate(0,60)"/>
<path d="M0 0 C1.32 0.33 2.64 0.66 4 1 C3.67 2.32 3.34 3.64 3 5 C2.01 5 1.02 5 0 5 C0 3.35 0 1.7 0 0 Z " fill="#3764FC" transform="translate(24,32)"/>
</svg>
